P3
10 10
255
99 42 60 129 73 97 133 82 105 128 76 99 130 90 94 122 96 107 81 101 122 73 101 113 92 82 100 69 54 79 
135 101 68 162 137 121 172 144 132 162 123 122 142 119 123 133 135 120 101 141 122 87 125 129 96 96 142 78 64 124 
119 123 89 137 160 129 151 165 124 151 137 109 127 124 112 114 145 118 101 139 123 95 109 138 96 83 152 88 58 119 
80 103 104 118 153 132 132 143 114 134 106 100 140 117 119 125 161 140 97 137 139 107 82 137 129 65 116 112 55 70 
61 72 103 103 129 145 135 113 127 138 82 100 142 113 111 127 164 140 101 148 154 114 97 150 142 80 111 120 58 53 
77 54 110 110 113 169 146 115 164 148 111 130 126 131 107 115 148 114 135 160 137 148 151 164 137 113 168 104 53 105 
82 48 107 121 121 167 145 148 177 136 138 147 112 136 105 117 149 88 148 177 90 152 177 136 136 114 186 108 41 137 
90 81 113 117 147 160 135 146 177 129 120 154 119 137 107 149 163 79 162 177 64 125 175 95 115 129 147 111 63 119 
102 121 109 120 174 144 126 132 173 111 100 166 103 135 121 136 149 85 156 144 64 137 157 81 119 155 132 97 108 117 
76 79 63 95 134 87 93 115 119 68 82 118 49 92 86 57 90 69 81 91 62 114 110 72 117 116 112 74 96 99 
