P3
10 10
255
255 159 252 27 157 214 88 47 80 148 130 111 156 150 127 21 110 73 231 104 101 229 127 140 7 13 19 103 37 144 
211 74 215 19 180 168 106 124 155 86 123 163 159 152 248 150 14 222 16 97 87 237 190 30 143 2 91 49 215 81 
202 21 173 30 89 225 70 188 115 106 162 221 15 213 156 29 48 122 95 138 130 120 171 174 16 11 87 23 39 238 
127 231 6 209 236 237 57 114 158 207 135 78 156 176 100 241 87 122 61 138 116 58 12 137 82 34 222 226 132 168 
125 246 186 1 69 234 30 138 229 149 84 252 39 68 54 7 23 54 241 57 248 191 48 39 197 246 39 110 59 250 
217 107 115 154 139 232 233 73 29 0 179 64 182 119 105 253 14 55 62 99 150 176 95 7 211 51 93 85 46 41 
12 55 56 83 252 45 35 123 98 5 179 61 212 174 96 143 55 38 251 239 20 9 36 140 162 102 66 57 22 106 
105 254 136 63 164 51 66 219 3 21 50 51 71 229 228 25 131 207 133 107 42 176 228 87 74 111 176 52 44 175 
214 234 72 76 230 8 120 39 192 160 79 102 245 206 199 185 161 30 173 53 157 193 232 109 204 247 186 60 240 83 
241 124 104 135 29 142 106 134 88 17 217 127 131 182 10 137 4 72 200 201 247 208 216 192 25 115 236 91 54 16 
