P3
10 10
255
61 70 73 88 88 107 99 78 69 94 55 56 93 57 67 109 40 77 110 38 88 105 44 63 63 55 53 27 47 28 
103 100 115 137 142 172 145 118 140 126 91 112 122 87 103 143 82 99 152 75 109 168 66 104 122 73 112 68 61 78 
108 76 102 122 129 171 128 105 151 114 92 136 149 73 105 144 79 86 132 88 113 116 67 127 111 74 146 70 52 99 
109 62 123 133 123 180 120 108 161 139 105 154 153 72 124 145 73 109 121 79 115 118 62 134 124 83 166 85 59 114 
94 54 103 130 115 153 113 105 110 156 116 122 176 72 114 169 63 118 141 78 133 98 79 117 98 120 134 49 81 75 
94 48 85 147 96 119 134 116 97 163 135 120 165 127 128 186 111 129 178 124 115 153 106 93 115 138 112 54 82 74 
85 90 56 142 134 104 129 126 94 135 146 122 138 136 131 170 152 127 183 153 125 169 142 91 136 144 104 63 80 67 
83 104 66 143 152 100 143 142 100 147 157 117 135 149 150 138 169 160 158 153 157 180 155 126 174 141 129 104 90 91 
71 122 58 128 175 103 124 145 96 149 144 100 136 109 132 131 130 174 130 100 195 150 134 171 162 135 153 109 111 104 
47 74 39 88 114 57 85 102 53 113 99 45 101 76 78 89 77 118 77 54 135 86 86 126 98 94 105 72 87 75 
