P3
10 10
255
255 255 255 0 44 255 255 255 255 0 0 0 0 0 255 255 255 102 255 0 255 0 255 255 255 255 0 0 97 255 
0 255 255 255 0 0 255 255 0 255 0 255 255 255 255 0 0 255 0 255 0 255 110 179 255 0 158 255 0 0 
0 0 255 255 0 255 255 255 0 0 255 255 0 0 255 255 255 0 0 255 0 0 0 255 255 0 131 0 255 255 
0 255 177 255 0 255 255 0 0 0 255 255 255 0 255 255 0 255 43 0 255 255 255 255 255 255 255 0 255 0 
0 255 142 0 255 255 197 255 0 255 0 255 0 255 255 0 255 0 0 255 255 255 0 0 0 255 255 255 0 255 
0 255 255 255 255 0 186 0 0 255 0 0 0 0 0 255 0 255 0 255 255 0 0 0 159 255 0 255 0 255 
255 55 255 0 0 255 255 255 255 0 255 255 255 255 255 255 255 0 255 255 255 0 255 255 0 214 255 0 255 255 
255 255 255 255 0 0 0 255 0 0 223 0 0 255 0 255 0 44 255 0 0 255 0 0 175 255 0 255 255 255 
0 255 255 0 0 0 0 0 255 39 255 255 255 118 0 0 255 117 0 119 255 255 0 255 255 255 255 255 255 255 
255 255 0 255 0 0 255 255 0 0 114 0 255 255 0 157 255 255 255 255 255 0 255 0 255 0 147 255 255 255 
