P3
10 10
255
255 255 255 0 255 255 255 0 255 255 255 255 255 255 255 0 255 0 255 255 255 255 255 255 0 0 0 255 255 255 
255 255 255 0 255 255 255 255 255 255 255 255 255 255 255 255 0 255 0 255 255 255 255 0 255 0 255 255 255 255 
255 0 255 0 255 255 28 255 255 255 255 255 0 255 255 0 0 255 255 255 255 255 255 255 0 0 255 0 255 255 
255 255 0 255 255 255 0 255 255 255 255 0 255 255 0 255 0 255 0 255 255 0 0 255 255 0 255 255 255 255 
255 255 255 0 0 255 0 255 255 255 0 255 0 0 0 0 0 0 255 0 255 255 0 0 255 255 0 255 255 255 
255 255 255 255 255 255 255 0 0 0 255 0 255 0 0 255 0 0 0 0 255 255 255 0 255 0 255 255 0 0 
0 0 0 255 255 0 0 255 255 0 255 0 255 255 0 255 0 0 255 255 0 0 0 255 255 255 0 0 0 255 
255 255 255 171 255 0 0 255 0 0 0 0 0 255 255 0 255 255 255 255 0 255 255 255 255 255 255 0 0 255 
255 255 255 255 255 0 255 0 255 255 84 255 255 255 255 255 255 0 255 0 255 255 255 255 255 255 255 255 255 255 
255 255 255 255 0 255 255 255 255 0 255 255 255 255 0 255 0 255 255 255 255 255 255 255 0 255 255 255 255 0 
