P3
10 10
255
243 123 174 235 188 32 244 209 23 5 206 112 179 104 109 5 219 51 160 211 200 238 30 226 161 94 103 73 231 24 
5 204 239 164 183 235 139 129 95 120 57 233 158 102 116 137 139 254 51 94 115 115 2 108 201 55 202 172 0 141 
240 186 24 101 40 203 228 195 106 174 129 98 227 104 214 207 164 156 209 51 10 248 141 175 223 176 197 226 30 55 
79 28 13 249 2 141 195 179 7 0 241 135 78 3 244 90 186 146 99 151 85 27 39 95 127 123 65 33 124 119 
214 158 195 21 37 164 162 157 81 222 138 41 11 63 181 231 156 190 178 25 116 144 226 107 70 82 221 101 179 215 
249 19 164 227 18 161 27 232 128 168 119 138 0 193 159 83 64 130 205 167 168 231 163 70 125 89 114 62 194 82 
76 184 66 172 139 160 71 27 99 175 52 87 141 108 181 80 42 230 2 7 26 213 133 189 206 160 13 108 4 210 
251 18 46 247 16 177 46 218 108 2 63 115 154 104 149 153 201 176 84 36 169 158 192 112 174 217 21 199 39 208 
103 253 143 132 115 18 83 41 207 38 220 127 200 109 141 205 11 209 83 14 134 81 168 181 18 144 17 107 238 110 
43 37 196 148 24 142 18 28 142 35 232 245 184 163 138 5 238 236 147 229 180 190 213 163 47 249 146 251 206 116 
