P3
10 10
255
139 130 161 53 82 182 123 176 160 57 26 41 61 19 122 160 155 102 221 56 154 11 108 151 180 145 1 8 35 247 
39 160 149 219 35 53 172 193 33 206 42 247 134 169 255 36 31 178 69 157 107 219 106 132 249 51 153 233 22 69 
6 44 196 188 114 162 254 242 67 58 203 194 38 51 219 200 251 58 14 221 65 35 24 215 246 82 163 110 245 241 
5 252 125 177 120 252 219 110 47 59 174 199 148 139 250 135 132 216 104 126 217 188 200 209 255 224 223 33 135 94 
23 251 110 25 204 228 163 186 4 243 79 173 70 219 216 52 234 38 62 253 248 207 12 45 11 143 236 217 38 195 
5 170 206 241 246 37 150 120 1 156 5 76 39 39 76 215 151 186 19 181 205 24 19 142 101 244 9 112 0 221 
211 94 125 109 87 235 142 164 213 85 160 178 248 173 178 175 208 14 192 155 199 67 234 237 53 145 182 59 223 112 
204 248 155 130 40 9 6 165 139 8 167 118 48 187 11 188 67 75 245 5 0 196 16 46 152 211 41 164 144 137 
20 183 218 99 92 92 55 67 238 97 227 231 216 137 26 41 135 72 91 87 131 193 26 221 254 160 122 207 137 89 
222 204 5 224 49 24 230 107 59 62 86 20 209 122 12 104 124 150 222 122 126 15 169 76 153 34 87 192 231 128 
