P3
10 10
255
255 255 255 0 255 255 255 0 255 255 255 255 255 255 255 0 255 65 255 255 255 255 255 255 0 0 0 255 255 255 
255 255 255 0 255 255 255 255 255 255 255 255 255 255 255 255 0 255 0 255 0 255 255 0 255 0 255 15 255 255 
255 0 255 0 255 255 0 255 255 255 255 255 0 255 255 0 0 255 0 255 255 255 255 255 0 0 255 0 0 255 
255 255 0 255 255 255 0 255 255 255 255 0 255 255 0 255 0 255 0 255 114 0 0 255 0 0 255 255 255 255 
255 255 255 0 0 255 0 255 255 255 0 255 0 0 0 0 0 0 255 0 255 255 0 0 255 255 0 255 181 255 
255 255 255 255 255 255 255 0 0 0 255 0 255 0 0 255 0 0 0 0 255 255 9 0 255 0 255 255 0 0 
0 0 0 146 255 0 0 255 255 0 255 0 255 255 0 255 0 0 255 255 0 0 0 255 255 255 0 0 0 255 
255 255 255 0 255 0 0 255 0 0 0 0 0 255 255 0 255 255 255 248 0 255 255 255 0 255 255 0 0 255 
255 255 255 255 255 0 255 0 255 255 0 255 255 255 255 255 255 0 255 0 255 255 255 255 255 255 255 255 255 255 
255 255 255 255 0 255 255 255 255 0 255 255 255 255 0 255 0 255 255 255 255 255 255 255 0 255 255 255 255 0 
