P3
10 10
255
255 255 255 0 0 255 255 255 0 0 255 255 255 255 255 255 255 0 0 255 255 255 0 255 255 255 255 255 255 255 
255 255 255 255 255 255 255 255 255 255 0 0 0 255 0 0 255 0 255 255 255 255 255 255 255 0 255 255 255 0 
0 255 0 255 0 255 255 0 0 0 0 255 0 0 0 0 255 255 0 97 0 255 255 255 255 255 0 6 255 255 
255 255 255 255 0 255 255 0 255 255 0 0 0 255 0 0 0 0 255 0 255 0 0 255 0 255 255 255 255 0 
255 255 255 255 255 255 255 102 255 255 0 255 255 255 255 0 255 255 255 255 255 0 0 255 0 255 255 255 0 0 
0 255 0 255 255 255 0 255 0 255 0 255 0 255 0 255 255 255 0 0 255 255 0 255 255 0 255 255 0 255 
255 255 0 0 255 0 255 255 0 255 255 0 0 0 0 255 0 0 0 0 0 0 255 255 255 255 255 255 255 255 
255 255 255 0 255 255 255 0 255 255 255 255 0 255 0 255 0 255 0 255 0 0 0 0 255 255 0 255 0 0 
0 255 255 255 0 0 0 255 255 255 0 255 255 0 255 0 255 0 255 255 255 0 0 0 0 255 255 255 255 255 
255 255 255 0 255 255 255 255 255 255 255 255 0 0 255 0 255 255 0 255 255 255 0 255 255 0 255 255 255 255 
