P3
10 10
255
45 39 39 53 49 49 62 56 56 72 61 64 81 68 74 79 66 73 69 61 63 58 50 59 51 40 52 43 36 41 
53 46 48 63 57 60 74 66 68 86 73 78 97 81 89 93 81 87 81 76 76 68 62 70 60 51 61 52 44 48 
61 52 56 72 64 70 83 73 79 98 82 91 111 91 102 107 90 102 93 82 88 80 68 82 69 57 71 59 48 56 
70 57 63 82 72 80 94 81 91 111 92 104 127 105 115 122 103 117 105 95 101 91 79 93 80 66 82 69 57 65 
77 66 71 91 81 90 105 90 103 123 104 118 139 118 130 134 116 131 115 107 115 100 90 105 89 75 91 75 64 73 
71 62 76 86 77 97 99 86 110 116 102 125 131 118 137 131 117 139 113 110 122 101 95 110 89 80 95 75 68 76 
64 54 65 77 67 83 89 75 94 105 91 107 117 106 117 115 108 120 99 103 106 89 90 95 79 75 83 67 65 66 
52 46 57 62 57 73 72 64 84 85 78 95 94 92 103 92 95 105 78 91 94 70 80 84 62 67 73 53 58 58 
44 40 50 54 49 65 62 55 74 75 68 85 83 80 91 81 82 93 70 78 83 65 69 73 57 59 64 48 50 52 
36 33 42 43 40 54 49 46 62 60 56 71 67 67 75 67 69 76 56 65 68 53 59 60 48 50 51 39 42 42 
