P3
10 10
255
166 232 204 100 234 218 219 62 83 110 153 2 163 85 112 50 57 202 247 51 73 162 4 91 134 192 42 5 61 20 
34 104 223 250 67 20 31 96 223 185 95 79 146 5 10 185 124 205 190 38 94 159 73 132 60 39 138 49 131 56 
160 155 142 222 113 233 57 215 208 134 31 196 96 85 98 33 156 29 179 142 70 163 34 89 225 28 211 145 98 237 
175 179 244 131 67 61 45 173 190 100 95 151 240 33 71 224 39 110 10 97 90 48 96 204 15 59 123 138 113 129 
255 45 237 42 8 191 113 159 120 238 119 105 228 35 252 91 58 111 204 15 157 141 81 181 81 12 85 168 228 241 
126 148 170 125 42 31 166 216 133 60 67 10 222 152 74 189 53 144 120 89 59 249 176 146 21 86 8 24 237 91 
118 35 108 186 158 29 200 59 56 78 216 200 166 200 135 216 248 129 238 154 102 157 247 13 170 100 92 29 82 152 
45 235 141 171 194 33 142 124 236 38 67 121 148 216 140 127 13 227 106 246 137 248 153 174 221 30 94 110 187 169 
163 204 140 67 111 149 200 255 10 214 95 71 138 189 88 97 97 239 13 162 244 221 58 151 253 251 133 161 165 184 
180 165 39 21 191 28 167 102 154 100 170 65 203 83 22 161 56 220 192 110 252 13 8 116 84 193 240 153 176 121 
