P3
10 10
255
172 10 127 140 47 170 196 151 117 166 22 183 192 204 33 216 67 179 78 154 251 82 162 219 195 118 125 139 103 125 
229 216 9 164 116 108 211 222 161 159 21 81 89 165 242 214 102 98 36 183 5 112 87 58 43 76 70 60 75 228 
216 189 132 14 88 154 178 246 140 205 204 69 58 57 41 98 193 66 72 122 230 125 174 202 39 74 234 207 87 168 
101 135 174 200 223 122 88 94 107 145 81 139 141 100 165 230 243 236 25 66 9 214 77 107 47 18 72 152 95 86 
9 27 78 22 148 151 238 165 115 8 45 5 208 19 69 94 243 146 38 213 197 30 8 245 254 71 53 199 79 7 
238 35 175 29 185 222 192 9 190 222 82 187 134 250 99 96 62 121 216 167 149 204 177 124 8 205 243 130 35 118 
29 3 62 133 147 194 208 199 147 12 203 173 142 59 71 30 167 97 123 184 32 221 209 163 193 63 255 148 9 205 
178 36 185 74 145 137 127 210 213 241 32 162 52 194 31 218 151 133 202 194 28 27 244 72 39 106 151 224 61 121 
163 234 185 67 254 121 179 47 203 45 52 198 114 171 166 188 183 68 198 116 28 216 111 55 34 227 132 145 128 168 
157 34 128 104 207 4 164 231 250 82 53 92 29 158 133 23 81 38 38 78 178 156 232 13 234 56 244 98 239 157 
