P3
10 10
255
43 42 50 56 46 56 66 54 67 79 60 74 79 51 68 73 48 67 73 45 62 62 37 53 49 33 47 39 25 36 
56 49 63 74 53 74 86 62 88 103 69 98 100 61 91 96 57 88 96 56 85 81 46 74 63 41 63 51 32 50 
66 58 70 88 66 83 104 76 99 123 85 110 123 77 103 117 75 100 114 73 96 98 62 85 75 54 72 59 44 56 
78 68 78 103 80 94 123 95 113 148 107 126 149 103 116 142 99 115 136 99 113 117 83 98 92 71 82 72 56 63 
74 66 79 99 81 95 121 95 114 142 111 129 147 111 122 140 104 125 139 105 123 122 91 106 96 76 90 74 62 70 
76 73 75 102 91 93 122 105 113 139 123 131 143 120 126 144 117 126 141 116 131 123 102 114 98 83 97 78 69 76 
74 75 65 102 94 81 124 105 105 142 123 127 143 119 125 145 118 130 140 120 134 123 103 119 95 85 103 73 73 79 
65 65 52 88 82 67 106 93 88 123 109 108 126 107 107 131 106 111 124 109 116 109 94 104 86 76 90 68 66 68 
52 58 39 70 75 48 86 84 68 100 100 84 105 97 84 108 96 90 100 98 93 90 86 83 72 68 74 56 59 54 
42 48 32 56 62 40 68 71 56 79 84 71 82 81 72 87 79 78 82 81 82 73 69 72 60 55 65 48 47 48 
