P3
10 10
255
49 46 38 62 53 52 71 67 64 82 78 72 83 71 75 82 72 75 76 65 77 70 52 65 57 46 51 48 31 39 
62 56 47 75 64 65 89 82 81 103 93 92 103 87 93 103 89 94 95 83 99 85 67 86 71 59 68 58 42 52 
75 64 60 89 76 80 104 95 99 122 109 113 122 107 113 120 110 112 113 103 116 99 85 101 86 73 80 71 54 61 
85 73 68 102 86 93 119 106 116 137 121 131 139 117 133 138 121 129 132 113 135 115 94 118 98 80 94 81 60 70 
82 64 70 97 78 95 117 97 122 134 108 136 135 110 138 134 120 130 134 108 138 117 92 121 101 78 95 81 59 69 
80 65 64 97 79 90 118 96 115 136 105 129 133 110 135 129 122 127 130 118 133 114 98 118 97 84 92 76 67 67 
70 61 70 86 76 94 103 94 121 119 107 139 120 116 141 111 130 133 116 133 139 103 111 121 88 96 97 70 77 70 
59 51 64 73 67 83 89 81 107 103 91 123 105 100 123 98 112 118 107 115 121 94 98 106 80 83 86 64 68 63 
47 41 54 61 55 70 71 67 90 82 76 103 85 83 106 78 94 98 88 97 99 79 83 85 65 69 69 54 58 49 
33 34 42 47 43 54 56 53 72 62 59 82 66 64 86 61 73 80 70 77 82 65 65 70 51 55 58 42 45 40 
