P3
10 10
255
255 255 255 255 255 255 255 255 255 82 0 0 0 0 255 255 255 255 255 0 255 0 255 255 255 255 0 0 0 255 
0 255 255 255 0 0 255 255 0 255 0 255 255 255 255 0 0 255 0 255 255 255 255 255 255 0 255 255 0 255 
0 0 255 255 255 255 255 255 0 0 255 255 0 0 255 255 255 0 0 255 0 0 0 255 255 255 255 255 255 255 
0 255 255 255 255 255 255 255 0 0 255 255 255 255 255 255 255 255 255 255 255 255 255 255 255 255 255 0 255 255 
0 255 255 0 255 255 255 255 0 255 0 255 0 255 255 0 255 0 0 255 255 255 0 0 0 255 255 255 0 255 
0 255 255 255 255 0 255 255 0 255 0 0 0 0 0 255 255 255 0 255 255 0 0 255 255 255 0 255 0 255 
255 255 255 255 105 255 255 255 255 0 255 255 255 255 255 255 255 0 255 255 255 0 255 255 0 255 255 0 255 255 
255 255 255 255 0 0 0 255 255 0 255 255 0 255 0 255 0 0 255 0 0 255 0 0 255 255 0 255 255 255 
0 255 255 255 255 255 0 0 255 255 255 255 255 255 0 0 255 0 255 255 255 255 0 255 255 255 255 255 255 255 
255 255 0 255 0 0 255 255 255 0 255 0 255 255 0 255 255 255 255 255 255 0 255 255 255 0 255 255 255 255 
