P3
10 10
255
255 255 255 0 255 255 255 0 0 255 255 226 255 255 255 0 255 0 255 255 255 255 255 255 0 0 0 255 103 255 
255 60 255 0 255 83 255 40 98 0 0 254 255 255 255 255 0 255 0 0 0 255 255 0 255 0 0 149 255 150 
255 0 255 0 0 255 0 255 0 98 233 255 0 255 128 0 0 0 0 255 160 255 255 255 0 0 0 0 0 255 
255 255 0 255 255 255 0 0 0 255 72 0 255 255 0 255 0 118 0 255 18 0 0 178 0 0 255 255 255 255 
255 255 255 0 0 255 0 213 255 255 0 255 0 0 0 0 0 0 255 0 255 255 0 0 255 255 0 189 22 255 
255 202 255 255 188 255 255 0 0 0 255 0 255 255 255 255 0 0 0 255 255 255 0 0 255 0 149 28 0 0 
0 0 0 0 255 0 0 0 255 0 255 0 255 255 55 98 0 0 255 255 0 0 0 255 255 255 0 0 0 255 
255 255 255 0 70 0 31 255 0 0 0 0 0 255 255 0 0 255 42 0 0 255 255 0 0 0 255 0 0 255 
255 255 207 0 255 0 255 0 255 255 0 20 255 255 255 255 255 0 255 0 255 255 255 0 255 255 255 94 255 0 
255 255 255 255 0 255 255 255 221 0 255 255 255 255 0 255 0 5 255 255 255 255 255 255 0 46 255 255 0 0 
