P3
10 10
255
72 202 144 35 3 240 249 215 58 21 203 147 180 219 235 167 89 37 55 183 226 85 4 143 217 207 116 123 177 181 
138 166 198 229 72 185 238 203 206 226 72 75 16 93 30 1 159 77 182 105 123 91 134 94 174 8 235 134 133 30 
12 215 1 218 33 252 122 43 76 37 91 179 91 33 44 77 240 151 91 106 60 144 175 237 102 209 50 59 109 149 
89 171 117 105 76 187 235 23 221 209 104 1 71 145 48 10 48 117 167 50 200 8 76 165 44 203 213 236 115 75 
100 106 188 252 152 209 132 112 162 227 119 134 202 211 218 115 179 175 191 229 146 86 64 110 62 123 206 254 45 18 
43 128 64 221 119 251 74 211 109 222 110 226 18 231 60 208 252 253 38 68 154 231 60 194 91 17 174 79 5 129 
207 222 68 47 127 13 204 201 16 224 236 37 2 53 34 248 56 78 8 113 103 13 167 188 215 225 108 94 170 119 
224 98 226 37 101 125 230 11 118 242 244 254 85 127 1 109 105 178 53 247 12 10 0 29 180 97 8 251 44 31 
38 175 208 174 52 13 7 215 231 111 14 229 237 41 222 59 153 26 117 225 255 36 9 44 52 117 190 249 164 87 
203 177 220 11 84 208 138 197 250 139 118 174 9 60 170 23 100 208 41 221 172 145 45 66 255 40 251 228 133 41 
