P3
10 10
255
44 32 45 52 38 53 62 42 59 70 45 68 77 49 75 73 48 70 64 42 61 58 34 51 49 28 45 38 25 38 
53 40 50 63 46 60 74 51 67 86 57 77 92 62 85 88 62 79 77 56 70 69 44 58 59 37 51 45 32 44 
62 48 57 75 57 68 89 64 76 102 73 87 111 80 95 105 80 90 92 72 81 82 60 68 71 50 59 55 43 50 
69 58 65 83 68 79 99 78 89 115 89 101 127 95 111 122 95 107 106 85 97 94 71 81 83 60 70 65 50 59 
79 69 70 94 79 88 110 92 100 129 103 115 143 113 126 138 112 122 122 100 110 108 83 95 94 72 83 75 59 71 
78 68 67 94 79 84 109 92 99 127 103 114 141 113 128 137 115 127 122 103 117 108 86 101 94 74 89 75 62 78 
70 64 60 84 73 75 97 85 88 112 96 102 125 105 114 122 107 115 110 96 106 96 80 92 84 69 81 67 57 70 
61 56 49 75 63 64 86 74 76 99 84 89 110 93 98 106 95 98 97 86 92 84 72 81 74 62 72 57 51 62 
53 50 40 64 56 53 74 66 65 87 75 75 97 83 83 94 86 84 87 77 79 75 66 70 66 57 63 52 46 54 
42 45 29 52 51 41 60 60 51 71 68 58 80 76 65 78 77 66 71 68 63 60 59 56 54 52 50 44 41 44 
