P3
10 10
255
71 77 75 114 115 88 100 107 81 93 89 76 67 91 97 76 96 93 78 77 106 102 54 106 106 45 89 67 42 52 
109 102 100 177 161 125 156 148 126 163 137 122 134 136 149 148 131 136 152 116 143 178 94 148 184 84 136 117 65 80 
93 71 95 155 127 118 152 128 139 146 126 138 132 125 177 139 110 148 131 107 127 144 92 116 152 76 128 109 56 86 
100 50 82 165 109 103 150 124 108 144 134 123 137 131 156 147 100 149 159 126 120 147 112 119 133 124 138 86 79 96 
115 29 93 158 92 117 141 124 110 95 147 123 98 129 151 108 111 157 143 130 122 134 118 115 102 135 120 57 87 90 
106 61 101 135 107 135 138 102 117 108 120 121 123 103 148 103 91 153 151 109 136 152 116 113 140 136 135 74 78 95 
135 43 86 151 96 123 126 98 130 87 124 129 106 105 151 100 102 154 134 111 141 155 129 97 163 132 113 97 78 72 
109 80 67 131 112 113 107 99 122 101 104 134 127 101 157 122 70 157 117 89 158 113 118 95 140 143 117 90 89 64 
102 51 80 119 83 130 83 106 142 84 130 152 108 149 170 135 122 170 122 144 173 109 162 124 136 185 119 88 121 68 
47 47 55 58 55 94 50 73 97 62 88 111 74 108 121 91 84 115 79 97 122 62 113 91 77 135 81 47 93 43 
