P3
10 10
255
255 255 255 255 255 255 255 255 255 0 0 0 0 0 255 255 255 255 255 0 255 0 255 255 255 255 0 0 0 255 
0 255 255 255 0 0 255 255 0 255 0 255 255 255 255 0 0 255 0 255 0 255 255 255 255 0 255 255 0 255 
0 0 255 255 255 255 255 255 0 0 255 255 0 0 255 255 255 0 0 255 0 0 0 255 255 255 255 255 255 255 
0 255 255 255 255 255 255 0 0 0 255 255 255 255 255 255 0 255 0 56 255 255 255 255 255 255 255 0 255 228 
0 255 255 0 255 255 255 255 0 255 0 255 0 255 255 0 255 0 0 255 255 255 0 0 0 255 255 255 0 255 
0 255 255 255 255 0 255 0 0 255 0 0 0 0 0 255 255 255 0 255 255 0 0 255 255 255 0 255 0 255 
255 255 255 255 0 255 255 255 255 0 255 255 255 255 255 255 255 0 255 255 255 0 255 255 0 255 255 0 255 255 
255 255 255 255 0 0 0 255 255 0 255 255 0 255 0 255 0 0 255 0 0 255 0 0 255 255 0 255 255 255 
0 255 255 255 255 255 0 0 255 142 255 255 255 255 0 0 255 0 0 0 255 255 0 255 255 255 255 255 255 255 
255 255 0 255 0 0 255 255 255 0 255 0 255 255 0 255 255 255 255 255 255 0 255 255 255 0 255 255 255 255 
