P3
10 10
255
255 255 255 0 0 255 255 255 0 0 255 255 255 255 255 255 255 0 0 255 255 255 0 255 255 255 255 255 255 255 
255 255 255 255 255 255 255 255 255 255 0 0 0 255 0 0 255 0 255 255 255 255 255 255 255 0 255 255 255 0 
0 255 0 255 0 255 255 0 0 0 185 255 0 0 0 0 255 255 255 255 0 255 255 255 255 255 0 255 255 255 
255 255 255 255 0 255 255 0 255 255 255 0 0 255 0 0 0 255 255 0 255 0 0 255 0 255 255 255 255 255 
255 255 255 255 255 255 255 255 255 255 255 255 255 255 255 0 255 255 255 255 255 0 0 255 0 255 255 255 0 0 
0 255 0 255 255 255 0 255 192 255 42 255 0 255 0 255 255 255 0 0 255 255 0 255 255 0 255 255 0 255 
255 255 12 0 255 0 255 255 0 255 255 0 0 0 0 255 0 0 0 255 62 0 255 255 255 255 255 255 255 255 
255 255 255 0 255 255 255 0 255 255 255 255 0 255 0 255 255 255 0 255 0 0 0 0 255 255 0 255 0 0 
0 255 255 255 0 0 0 255 255 255 0 255 255 0 255 0 255 0 255 255 255 0 0 0 0 255 255 255 255 255 
255 255 255 0 255 255 255 255 255 255 255 255 0 0 255 0 255 255 0 255 255 255 0 255 255 0 255 255 255 255 
