P3
10 10
255
230 203 216 192 109 75 141 14 56 100 163 210 55 248 37 1 71 208 78 230 111 64 202 148 243 164 45 157 212 104 
235 134 233 241 122 56 37 176 226 124 98 210 194 7 29 111 211 129 252 8 26 110 118 53 69 183 209 127 155 164 
90 100 31 194 121 10 172 126 179 237 111 34 182 120 96 32 108 39 137 194 76 216 236 3 34 29 110 93 227 4 
151 216 76 220 197 229 58 44 241 152 194 48 226 146 120 208 37 167 126 215 5 133 237 109 225 228 34 3 168 215 
156 117 238 9 222 227 111 192 195 180 216 182 160 58 51 191 197 87 68 155 232 177 30 236 125 15 119 165 133 120 
72 233 84 244 58 209 126 14 157 95 47 144 195 2 174 107 100 210 234 49 232 194 44 146 117 127 99 19 218 22 
208 80 243 230 113 25 170 88 120 91 103 30 225 204 222 151 254 159 212 220 167 7 67 29 145 103 49 202 252 111 
222 128 208 176 125 210 203 105 24 202 34 163 19 153 97 90 189 130 213 233 244 71 140 33 92 176 80 16 175 201 
143 161 157 17 130 112 125 93 132 98 64 81 8 158 49 231 207 252 208 227 33 156 40 227 26 253 203 65 0 29 
35 194 32 193 206 171 19 41 236 73 181 11 186 80 168 177 30 135 227 119 34 148 99 74 105 73 105 219 34 142 
