P3
10 10
255
99 63 64 119 84 95 92 75 92 72 78 85 64 88 91 76 86 60 68 93 75 90 100 65 85 114 80 66 79 58 
131 87 69 170 122 120 159 115 117 138 118 119 115 126 110 115 132 83 111 153 88 133 151 86 123 169 93 80 107 70 
125 98 70 155 137 142 159 132 137 153 113 131 162 114 96 163 116 76 147 151 67 144 160 69 112 175 100 61 110 81 
91 108 90 129 148 158 148 158 149 164 134 127 174 131 91 147 136 97 143 156 106 137 148 102 130 144 105 71 88 66 
94 115 118 127 143 184 132 131 181 144 101 145 168 110 131 168 106 142 159 118 158 155 122 134 128 133 122 72 98 67 
102 91 114 147 124 166 139 117 143 150 102 141 155 131 139 171 137 170 149 124 166 142 89 145 127 109 103 85 94 57 
128 81 108 183 104 142 170 76 120 147 83 125 130 120 147 160 155 181 142 143 149 142 128 119 95 144 85 65 116 62 
110 81 106 166 113 136 145 95 99 126 111 101 123 151 131 150 205 150 148 175 141 125 162 118 86 134 106 60 106 74 
87 104 98 125 131 142 122 108 126 103 100 106 120 121 120 151 155 126 169 142 129 138 151 114 99 109 121 58 79 84 
43 76 52 59 91 93 58 79 82 56 68 75 85 80 77 115 91 74 127 80 83 96 90 75 79 55 86 46 40 53 
