P3
10 10
255
246 255 255 0 0 255 255 255 0 0 255 255 255 255 255 255 42 0 0 255 255 46 0 255 255 255 255 255 255 255 
255 255 255 255 0 255 255 255 255 255 0 0 0 0 0 0 255 0 255 0 82 0 209 0 255 0 255 255 255 0 
0 255 0 255 0 255 0 0 0 0 103 255 172 0 0 64 255 255 139 0 0 255 255 255 28 255 0 0 255 255 
114 255 216 0 0 255 255 0 255 255 159 0 0 255 0 0 0 11 255 0 255 0 0 255 0 255 255 255 255 39 
190 255 255 255 255 255 0 94 120 255 0 161 255 255 255 130 255 255 255 255 0 0 0 0 0 255 255 255 0 0 
0 255 0 255 0 255 0 255 0 255 0 255 0 255 0 255 255 255 0 0 139 255 0 255 0 0 255 0 0 255 
255 255 0 0 52 0 255 255 0 255 255 0 0 0 0 255 0 0 0 62 0 0 255 255 255 255 100 30 255 255 
255 205 255 0 0 232 255 0 144 255 255 255 0 241 0 172 0 255 0 255 0 0 0 0 255 0 0 255 0 0 
0 255 255 255 0 0 0 255 255 0 0 255 255 0 255 0 251 0 255 255 255 0 0 0 0 255 255 255 255 255 
255 255 255 0 0 255 255 255 255 255 255 255 0 114 255 0 200 255 0 255 255 255 0 0 255 0 255 255 255 0 
