P3
10 10
255
52 43 43 65 54 49 73 62 60 85 75 64 81 78 59 75 79 60 75 88 55 62 76 45 49 65 39 42 57 28 
61 58 60 78 70 67 89 83 80 103 99 89 99 100 84 96 97 82 97 104 76 80 88 62 64 76 56 53 64 43 
72 65 72 93 77 83 106 92 100 124 109 114 124 107 110 118 105 106 116 116 97 98 99 81 77 87 70 64 73 53 
87 73 81 112 89 96 128 109 116 151 131 133 146 128 125 138 126 122 137 141 113 117 122 96 92 106 81 76 86 60 
89 71 82 114 85 98 132 108 117 157 130 137 153 127 126 142 125 121 137 137 115 115 120 98 91 106 82 73 84 63 
84 70 77 105 87 93 126 109 115 150 135 135 148 130 130 142 130 123 133 140 116 112 124 102 91 107 85 71 85 64 
77 73 81 97 89 99 121 110 122 147 135 141 145 125 138 140 124 128 138 132 122 119 115 109 99 98 91 75 78 67 
65 60 69 81 73 84 100 93 104 124 113 123 122 103 119 117 101 113 116 107 108 101 94 95 84 80 80 65 60 60 
55 44 52 68 57 66 84 72 84 106 90 99 104 81 94 96 84 90 94 90 87 82 82 78 70 69 64 54 54 46 
45 37 39 53 49 50 67 63 64 84 80 74 80 75 68 75 76 67 74 78 66 65 71 60 56 58 49 43 45 35 
