P3
10 10
255
47 42 40 54 50 48 62 60 54 71 70 60 79 78 67 75 79 64 65 70 57 58 63 46 48 53 38 38 46 33 
56 47 50 64 55 60 75 66 69 86 77 77 96 86 85 92 87 82 78 77 72 70 70 59 59 60 49 47 53 42 
67 54 58 77 66 70 91 79 81 102 91 89 114 101 98 109 105 93 93 93 83 83 85 68 71 73 58 55 64 49 
78 60 66 89 75 80 105 91 94 117 104 103 130 117 112 123 121 108 104 108 95 92 98 80 77 87 67 61 75 57 
82 68 73 96 85 90 115 104 104 129 118 116 142 133 128 134 135 121 115 121 107 101 110 91 85 97 77 70 84 66 
80 68 73 96 84 89 117 102 102 131 114 114 143 129 126 138 129 122 119 113 107 107 102 88 91 89 77 74 77 65 
70 61 64 84 75 78 102 92 91 115 103 102 126 116 112 122 115 109 107 101 94 94 92 78 81 80 70 66 69 58 
59 54 60 73 66 74 89 81 85 100 89 96 110 101 104 106 100 102 93 87 87 83 80 74 72 69 66 59 59 55 
49 44 51 60 56 63 75 68 74 84 74 84 92 83 92 90 82 88 79 71 76 70 64 65 61 56 58 51 48 48 
41 34 40 51 44 51 64 54 59 71 59 66 77 68 72 75 67 70 65 59 61 57 54 52 50 49 47 42 42 38 
